<svg xmlns="http://www.w3.org/2000/svg" fill-rule="evenodd" clip-rule="evenodd" image-rendering="optimizeQuality" shape-rendering="geometricPrecision" text-rendering="geometricPrecision" viewBox="0 0 512 282.9"><path d="M195.26 120.8h131.21v91.45c0 6.17-5.05 11.22-11.22 11.22h-109.7c-6.16 0-11.21-5.05-11.21-11.21v-91.2l-8.76-26.74 19.07-5.41 9.81 26.39-19.2 5.5zm206.97 146.13c0 .67.06 1.29.19 1.88l-281.98-.02V14.08h281.98c-.13.59-.19 1.21-.19 1.88v15.69c0 10.33 15.69 10.33 15.69 0V15.96c0-.67-.06-1.3-.19-1.88h68.35c3.23.02 6.19 1.36 8.33 3.49 2.13 2.14 3.47 5.1 3.47 8.32v231.1c0 3.23-1.34 6.18-3.47 8.31-2.15 2.15-5.1 3.48-8.32 3.51h-68.36c.13-.59.19-1.21.19-1.88v-15.68c0-10.33-15.69-10.33-15.69 0v15.68zm0-47.05c0 10.33 15.69 10.33 15.69 0v-15.69c0-10.33-15.69-10.33-15.69 0v15.69zm0-47.06c0 10.33 15.69 10.33 15.69 0v-15.69c0-10.33-15.69-10.33-15.69 0v15.69zm0-47.06c0 10.33 15.69 10.33 15.69 0v-15.68c0-10.33-15.69-10.33-15.69 0v15.68zm0-47.06c0 10.33 15.69 10.33 15.69 0V63.02c0-10.33-15.69-10.33-15.69 0V78.7zM25.92 0l460.16.01c7.12-.03 13.61 2.89 18.31 7.58 4.69 4.69 7.61 11.18 7.61 18.3v231.1c0 7.13-2.92 13.61-7.61 18.3-4.7 4.69-11.19 7.61-18.3 7.61l-460.17-.02c-7.08.03-13.57-2.89-18.27-7.59l-.05-.05C2.93 270.55 0 264.08 0 256.99v-52.36c0-3.61 2.72-6.59 6.22-7.01 12.23-2.63 22.94-9.4 30.58-18.76 7.6-9.33 12.17-21.26 12.17-34.27 0-13.01-4.57-24.95-12.17-34.27-7.75-9.5-18.68-16.35-31.15-18.89-3.33-.67-5.63-3.62-5.62-6.89L0 25.9c0-7.13 2.92-13.61 7.61-18.3C12.31 2.9 18.8-.02 25.92 0zm200.11 111.99 22.92-6.56-9.78-26.33-22.04 6.26 8.9 26.63zm34.53-9.87 25.88-7.41-9.76-26.26-25 7.1 8.88 26.57zm37.46-10.72 19.19-5.49-8.75-26.49-19.3 5.48 8.86 26.5zm-86.35 44.33h97.47c.89 0 1.62.74 1.62 1.62v69.57c0 .88-.74 1.62-1.62 1.62h-97.47c-.88 0-1.62-.73-1.62-1.62v-69.57c0-.89.72-1.62 1.62-1.62zm-6.48-5.76h110.43c.89 0 1.62.75 1.62 1.62v81.09c0 .87-.74 1.62-1.62 1.62H205.19c-.88 0-1.62-.73-1.62-1.62v-81.09c0-.89.73-1.62 1.62-1.62z"/></svg>